<svg id="Layer_1" data-name="Layer 1" xmlns="http://www.w3.org/2000/svg" width="85" height="85" viewBox="0 0 85 85"><defs><style>.cls-1{fill:#fff;}</style></defs><path class="cls-1" d="M69.5,85h-54A15.51,15.51,0,0,1,0,69.5v-54A15.51,15.51,0,0,1,15.5,0h54A15.51,15.51,0,0,1,85,15.5v54A15.51,15.51,0,0,1,69.5,85ZM15.5,7A8.51,8.51,0,0,0,7,15.5v54A8.51,8.51,0,0,0,15.5,78h54A8.51,8.51,0,0,0,78,69.5v-54A8.51,8.51,0,0,0,69.5,7Z"/><path class="cls-1" d="M37.82,39.09H32.45V33.17h5.37V30.88c0-5.92,1-9.76,8.67-9.76,1.49,0,5.68,0,7.4,1.3L52.11,28a26.94,26.94,0,0,0-3.27-.43c-1.6,0-2.35,1-2.35,2.93v2.69h6.14l-.11,5.92h-6V66.36H37.82Z"/></svg>