<svg id="Layer_1" data-name="Layer 1" xmlns="http://www.w3.org/2000/svg" width="85" height="85" viewBox="0 0 85 85"><defs><style>.cls-1{fill:#fff;}</style></defs><path class="cls-1" d="M69.5,85h-54A15.51,15.51,0,0,1,0,69.5v-54A15.51,15.51,0,0,1,15.5,0h54A15.51,15.51,0,0,1,85,15.5v54A15.51,15.51,0,0,1,69.5,85ZM15.5,7A8.51,8.51,0,0,0,7,15.5v54A8.51,8.51,0,0,0,15.5,78h54A8.51,8.51,0,0,0,78,69.5v-54A8.51,8.51,0,0,0,69.5,7Z"/><path class="cls-1" d="M42.5,71.81A29.31,29.31,0,1,1,71.81,42.5,29.35,29.35,0,0,1,42.5,71.81Zm0-51.62A22.31,22.31,0,1,0,64.81,42.5,22.34,22.34,0,0,0,42.5,20.19Z"/><circle class="cls-1" cx="68.34" cy="16.91" r="5.16"/></svg>