<svg id="Layer_1" data-name="Layer 1" xmlns="http://www.w3.org/2000/svg" width="85" height="85" viewBox="0 0 85 85"><defs><style>.cls-1{fill:#fff;}</style></defs><path id="Subtraction_11" data-name="Subtraction 11" class="cls-1" d="M43.26,66.36h-.71a4.61,4.61,0,0,0-1.32-2.72,3.64,3.64,0,0,0-5.19,0h0a4.67,4.67,0,0,0-1.32,2.71l-.68,0a4.72,4.72,0,0,0-1.16-3.13,3.78,3.78,0,0,0-2.8-1.29,3.63,3.63,0,0,0-1.34.26,3.7,3.7,0,0,0-1.14.73,4.56,4.56,0,0,0-1.38,2.47C23.78,64.78,22.45,64,22.27,63s.59-1.88,2.21-3l2.2-11.4a9.4,9.4,0,0,1-3.71,1,2.21,2.21,0,0,1-1.88-.73,1.93,1.93,0,0,1-.25-1.5,5.81,5.81,0,0,1,.83-2,16.82,16.82,0,0,1,4.3-4.4,20,20,0,0,1,2.49-1.56L29,36.46a6.48,6.48,0,0,1,.61-2.74,27.34,27.34,0,0,1,2-6,19.94,19.94,0,0,1,3.07-4.77,13.38,13.38,0,0,1,3.92-3.14,9.67,9.67,0,0,1,9.08,0,13.29,13.29,0,0,1,3.93,3.14,20.25,20.25,0,0,1,3.07,4.77,27.22,27.22,0,0,1,2,6,6.27,6.27,0,0,1,.62,2.73l.62,3.64c.32.19.64.39.95.6A16.63,16.63,0,0,1,63.24,45a5.68,5.68,0,0,1,.9,1.95,1.86,1.86,0,0,1-.2,1.51,2.31,2.31,0,0,1-2,.81,8.34,8.34,0,0,1-2.57-.47L61.29,60c2,.75,2.94,1.52,2.9,2.28-.06,1.19-2.58,2.13-4.69,2.7a4.42,4.42,0,0,0-1.41-2.2,3.63,3.63,0,0,0-2.35-.87A3.75,3.75,0,0,0,53,63.2a4.76,4.76,0,0,0-1.17,3.13l-.67,0a4.67,4.67,0,0,0-1.32-2.72,3.65,3.65,0,0,0-5.19,0l0,0a4.66,4.66,0,0,0-1.31,2.72ZM33.6,41.54a8.29,8.29,0,0,0,3,5A8.93,8.93,0,0,0,39.33,48a9.7,9.7,0,0,0,6.34,0,9.13,9.13,0,0,0,2.68-1.48,8.29,8.29,0,0,0,3-5Zm13.58-8.9a2.86,2.86,0,1,0,2.69,3,.66.66,0,0,0,0-.14,2.79,2.79,0,0,0-2.7-2.86Zm-9.19,0a2.86,2.86,0,1,0,2.7,3V35.5A2.78,2.78,0,0,0,38,32.64Z"/><path class="cls-1" d="M69.5,85h-54A15.51,15.51,0,0,1,0,69.5v-54A15.51,15.51,0,0,1,15.5,0h54A15.51,15.51,0,0,1,85,15.5v54A15.51,15.51,0,0,1,69.5,85ZM15.5,7A8.51,8.51,0,0,0,7,15.5v54A8.51,8.51,0,0,0,15.5,78h54A8.51,8.51,0,0,0,78,69.5v-54A8.51,8.51,0,0,0,69.5,7Z"/></svg>