<svg id="Layer_1" data-name="Layer 1" xmlns="http://www.w3.org/2000/svg" width="85" height="85" viewBox="0 0 85 85"><defs><style>.cls-1{fill:#fff;}</style></defs><path id="Path_20" data-name="Path 20" class="cls-1" d="M28.37,57c1.72,2,11.85,12.32,24.48,5.41S67.4,44,59.12,47.12s-12.75-12.7-2.35-10.89.45-5.78.45-5.78-.78-8.51-4.17-9.79a11.24,11.24,0,0,0-12.3,4.23c12,18.84-9.21,17.52-18.46,15.2C17.37,40.24,26.65,55,28.37,57Z"/><path class="cls-1" d="M69.5,85h-54A15.51,15.51,0,0,1,0,69.5v-54A15.51,15.51,0,0,1,15.5,0h54A15.51,15.51,0,0,1,85,15.5v54A15.51,15.51,0,0,1,69.5,85ZM15.5,7A8.51,8.51,0,0,0,7,15.5v54A8.51,8.51,0,0,0,15.5,78h54A8.51,8.51,0,0,0,78,69.5v-54A8.51,8.51,0,0,0,69.5,7Z"/></svg>